<svg xmlns="http://www.w3.org/2000/svg" width="219.234" height="190.914" viewBox="0 0 219.234 190.914"><g transform="translate(-32.302 -67.411)"><g transform="translate(32.302 159.102)"><path d="M67.094,343.25c6.769,3.909,6.769,10.248,0,14.146s-17.756,3.909-24.531,0-6.774-10.253,0-14.146S60.283,339.336,67.094,343.25Z" transform="translate(-37.483 -289.025)" fill="#e0e0e0"/><path d="M121.483,305.625,182.92,341.1a5.014,5.014,0,0,0,4.537,0l104-60.043a1.383,1.383,0,0,0,0-2.62l-61.437-35.476a5.014,5.014,0,0,0-4.537,0l-104,60.048C120.226,303.728,120.226,304.9,121.483,305.625Z" transform="translate(-77.023 -242.414)" fill="#e0e0e0"/></g><g transform="translate(225.76 144.78)"><path d="M412.778,255.318l-4.281-2.473s-2.552-10.589-1.535-20.114c1.43-13.392,8.634-19.223,13.6-17.29,3.3,1.3,4.322,5.051-1.226,13.03C416.063,233.193,412.045,242.99,412.778,255.318Z" transform="translate(-406.723 -215.08)" fill="#ec1313"/><g opacity="0.3"><path d="M412.778,255.318l-4.281-2.473s-2.552-10.589-1.535-20.114c1.43-13.392,8.634-19.223,13.6-17.29,3.3,1.3,4.322,5.051-1.226,13.03C416.063,233.193,412.045,242.99,412.778,255.318Z" transform="translate(-406.723 -215.08)"/></g><path d="M414.044,252.154h.058a.293.293,0,0,0,.236-.346c-2.347-12.349,1.97-26.233,7.335-32.007a.3.3,0,0,0-.44-.4c-5.438,5.884-9.84,19.988-7.456,32.521a.288.288,0,0,0,.267.236Z" transform="translate(-409.766 -217.092)" fill="#fff"/><path d="M426.163,271.817c.676.341,2.473-1.2,2.976-1.572a6.287,6.287,0,0,0,1.965-2.5,5.9,5.9,0,0,0,.341-3.558,13.852,13.852,0,0,0-.524-1.855l-.613-1.792a4.621,4.621,0,0,1-.362-1.823c.094-1.257,1.158-2.185,2.127-2.986,1.048-.891,2.169-2.049,2.1-3.547a5.286,5.286,0,0,0-1.483-3.076c-.76-.87-1.656-1.629-2.352-2.557a3.694,3.694,0,0,1-.87-2.295,3.841,3.841,0,0,1,.435-1.483,20.735,20.735,0,0,0,1.446-3,2.953,2.953,0,0,0-.66-3.081,3.516,3.516,0,0,0-2.62-.524,5.952,5.952,0,0,0-2.358.964c-2.316,1.446-3.531,4.338-6.01,5.48a25.672,25.672,0,0,1-3.018.906,3.771,3.771,0,0,0-2.436,1.849c-.838,1.9,1,4.1.445,6.1-.487,1.771-2.143,2.52-3.013,4.139a3.668,3.668,0,0,0-.33,2.3,10.893,10.893,0,0,0,1.153,3.8,33.385,33.385,0,0,0,2.29,3.516S426.058,271.765,426.163,271.817Z" transform="translate(-408.896 -225.103)" fill="#ec1313"/><g transform="translate(2.391 11.031)" opacity="0.15"><path d="M426.163,271.817c.676.341,2.473-1.2,2.976-1.572a6.287,6.287,0,0,0,1.965-2.5,5.9,5.9,0,0,0,.341-3.558,13.852,13.852,0,0,0-.524-1.855l-.613-1.792a4.621,4.621,0,0,1-.362-1.823c.094-1.257,1.158-2.185,2.127-2.986,1.048-.891,2.169-2.049,2.1-3.547a5.286,5.286,0,0,0-1.483-3.076c-.76-.87-1.656-1.629-2.352-2.557a3.694,3.694,0,0,1-.87-2.295,3.841,3.841,0,0,1,.435-1.483,20.735,20.735,0,0,0,1.446-3,2.953,2.953,0,0,0-.66-3.081,3.516,3.516,0,0,0-2.62-.524,5.952,5.952,0,0,0-2.358.964c-2.316,1.446-3.531,4.338-6.01,5.48a25.672,25.672,0,0,1-3.018.906,3.771,3.771,0,0,0-2.436,1.849c-.838,1.9,1,4.1.445,6.1-.487,1.771-2.143,2.52-3.013,4.139a3.668,3.668,0,0,0-.33,2.3,10.893,10.893,0,0,0,1.153,3.8,33.385,33.385,0,0,0,2.29,3.516S426.058,271.765,426.163,271.817Z" transform="translate(-411.287 -236.134)"/></g><path d="M426.741,270.587h0a.3.3,0,0,0,.272-.325c-1.085-11.747,3.809-25.023,7.649-29.005a.3.3,0,1,0-.424-.414c-3.924,4.061-8.907,17.562-7.817,29.471A.3.3,0,0,0,426.741,270.587Z" transform="translate(-416.029 -227.289)" fill="#fff"/><path d="M429.124,267.887h.089a39.355,39.355,0,0,1,8.472-1.808.3.3,0,0,0,.267-.325.283.283,0,0,0-.32-.267,40.664,40.664,0,0,0-8.624,1.839.3.3,0,0,0,.115.576Z" transform="translate(-417.243 -239.076)" fill="#fff"/></g><g transform="translate(75.158 67.411)"><path d="M126.34,294.023a5.559,5.559,0,0,0,2.593,4.3L185.367,330.9a5.763,5.763,0,0,0,5.182,0l99.343-57.355a4.862,4.862,0,0,0,0-8.6l-56.423-32.584a5.716,5.716,0,0,0-5.182,0l-99.354,57.36a5.569,5.569,0,0,0-2.593,4.307Z" transform="translate(-122.64 -145.64)" fill="#37474f"/><path d="M130.315,292.708l56.433,32.584a5.716,5.716,0,0,0,5.182,0l99.343-57.361c1.436-.828,1.436-2.169,0-2.992l-56.423-32.584a5.716,5.716,0,0,0-5.182,0l-99.354,57.36C128.885,290.555,128.885,291.885,130.315,292.708Z" transform="translate(-124.022 -145.64)" fill="#455a64"/><path d="M187.949,378.751v5.611a5.286,5.286,0,0,1-2.62-.618l-56.4-32.584a4.852,4.852,0,0,1-.262-8.441c-1.163.833-1.048,2.054.262,2.829l56.433,32.584A5.344,5.344,0,0,0,187.949,378.751Z" transform="translate(-122.64 -198.476)" fill="#263238"/><path d="M120.547,211.584c-1.341-.775-1.268-2.1-1.268-3.736V129.913a5.763,5.763,0,0,1,2.62-4.49l99.328-57.361a5.559,5.559,0,0,1,5.019-.094c1.347.775,1.273,2.1,1.273,3.741v77.93a5.732,5.732,0,0,1-2.593,4.49l-99.354,57.36a5.554,5.554,0,0,1-5.025.094Z" transform="translate(-119.279 -67.413)" fill="#37474f"/><path d="M228.215,71.7c0-1.65-1.163-2.316-2.593-1.493l-99.354,57.366a5.239,5.239,0,0,0-1.834,1.933l-3.694-2.148h0a5.281,5.281,0,0,1,1.834-1.939l99.343-57.36a5.554,5.554,0,0,1,5.025-.094C228.283,68.768,228.215,70.051,228.215,71.7Z" transform="translate(-119.974 -67.411)" fill="#455a64"/><path d="M125.268,266.116a5.569,5.569,0,0,1-4.715-.063c-1.341-.775-1.273-2.1-1.273-3.736V184.382a5.239,5.239,0,0,1,.76-2.552l3.7,2.143h0a5.313,5.313,0,0,0-.76,2.552v77.941C122.978,266,123.979,266.687,125.268,266.116Z" transform="translate(-119.279 -121.882)" fill="#263238"/><path d="M132.572,137.5l95.765-55.291c.859-.524,1.572-.094,1.572.9V151.15a3.432,3.432,0,0,1-1.572,2.693l-95.765,55.275c-.859.492-1.572.094-1.572-.9V140.19A3.442,3.442,0,0,1,132.572,137.5Z" transform="translate(-124.859 -74.347)" fill="#fafafa"/><path d="M144.5,294.035l92.213-53.248a2.85,2.85,0,0,1,2.588,0l1.535.844a.791.791,0,0,1,0,1.5l-92.213,53.232a2.866,2.866,0,0,1-2.62,0l-1.519-.833A.786.786,0,0,1,144.5,294.035Z" transform="translate(-131.026 -149.802)" fill="#263238"/><path d="M158.23,302.2l92.213-53.242a2.646,2.646,0,0,1,2.368-.131l24,13.863c.592.341.492.954-.22,1.367l-92.1,53.169a2.677,2.677,0,0,1-2.373.136l-24.1-13.8C157.418,303.231,157.517,302.618,158.23,302.2Z" transform="translate(-137.534 -153.675)" fill="#263238"/><path d="M240.266,273.175l2.892-1.666c.121-.068.131-.178,0-.241L240.4,269.7a.472.472,0,0,0-.419,0l-2.887,1.671c-.126.068-.136.178,0,.241l2.761,1.572A.456.456,0,0,0,240.266,273.175Zm-4.191-5.763-2.887,1.666c-.126.068-.136.178-.026.241l2.761,1.572a.472.472,0,0,0,.419,0l2.887-1.671c.126-.068.136-.178.026-.241l-2.761-1.572a.456.456,0,0,0-.44.005Zm-9.331,5.386-4.883,2.819c-.126.068-.136.178-.026.241l2.761,1.6a.472.472,0,0,0,.419,0l4.888-2.824c.121-.068.131-.178,0-.241l-2.766-1.572a.456.456,0,0,0-.414-.042Zm5.108-2.95-2.887,1.666c-.121.068-.131.178-.026.241l2.766,1.572a.472.472,0,0,0,.419,0l2.887-1.671c.121-.068.131-.178,0-.241l-2.766-1.572a.456.456,0,0,0-.414-.016Zm-11.327,6.539-2.887,1.666c-.121.073-.131.178-.026.241l2.766,1.572a.477.477,0,0,0,.419,0l2.887-1.666c.121-.073.131-.178.026-.246l-2.766-1.572a.456.456,0,0,0-.44-.016Zm-4.218,2.436-2.918,1.645c-.126.073-.136.178,0,.241l2.761,1.6a.472.472,0,0,0,.419,0l2.887-1.666c.126-.073.136-.178.026-.246l-2.761-1.572a.456.456,0,0,0-.435-.021Zm10.824,6.507,2.892-1.666c.121-.073.131-.178,0-.241l-2.761-1.572a.456.456,0,0,0-.419,0l-2.887,1.666c-.126.073-.136.178-.026.241l2.761,1.6a.472.472,0,0,0,.419-.047Zm-4.218,2.436L225.8,286.1c.121-.073.136-.178.026-.241l-2.761-1.6a.467.467,0,0,0-.424,0l-2.887,1.666c-.121.073-.131.178,0,.241l2.761,1.572a.472.472,0,0,0,.377.005Zm-4.223,2.436,2.892-1.666c.121-.073.131-.178,0-.241l-2.761-1.6a.456.456,0,0,0-.419,0l-2.887,1.671c-.126.073-.136.178-.026.241l2.761,1.6a.456.456,0,0,0,.419-.026Zm-4.254,2.415,2.887-1.666c.126-.073.136-.178,0-.241l-2.761-1.6a.456.456,0,0,0-.419,0l-2.85,1.682c-.121.073-.131.178,0,.241l2.761,1.6A.456.456,0,0,0,214.436,292.618Zm21.6-17.028,2.887-1.666c.121-.068.136-.178.026-.241l-2.761-1.572a.472.472,0,0,0-.419,0l-2.892,1.671c-.121.068-.131.178,0,.241l2.761,1.572a.456.456,0,0,0,.414-.005Zm-4.715,7.283,6.439-3.72c.126-.068.136-.178,0-.241l-6.706-3.872a.482.482,0,0,0-.424,0l-3.327,1.923c-.126.073-.136.183-.026.246l3.552,2.049c.11.063.094.173-.026.241l-2.625,1.535c-.121.073-.131.178,0,.241l2.761,1.6a.472.472,0,0,0,.4,0Zm-19.27-1.635L209.2,282.9c-.12.073-.131.178,0,.241l2.761,1.6a.471.471,0,0,0,.419,0l2.887-1.666c.121-.073.131-.178.026-.241l-2.766-1.6a.456.456,0,0,0-.461,0Zm-4.2,2.415-2.887,1.666c-.126.073-.136.178,0,.241l2.761,1.6a.456.456,0,0,0,.419,0l2.887-1.666c.126-.073.136-.178.026-.241l-2.787-1.6A.456.456,0,0,0,207.845,283.653Zm-23.352,26.013a.456.456,0,0,0,.419,0L187.8,308c.12-.068.131-.178.026-.241l-2.766-1.572a.456.456,0,0,0-.419,0l-2.887,1.666c-.12.073-.131.183-.026.246Zm-10.4-6.5-2.887,1.666c-.12.073-.136.183-.026.246l2.766,1.572a.456.456,0,0,0,.419,0l2.887-1.666c.12-.068.131-.178,0-.241l-2.761-1.572a.456.456,0,0,0-.4-.005Zm5.349,4.888a.487.487,0,0,0,.424,0l2.887-1.666c.12-.073.131-.183,0-.246l-2.761-1.572a.456.456,0,0,0-.419,0l-2.861,1.645c-.12.068-.136.178-.026.241Zm11.647,2.62,2.887-1.666c.12-.068.131-.178,0-.241l-2.766-1.572a.472.472,0,0,0-.419,0l-2.887,1.671c-.12.068-.131.178,0,.241l2.761,1.572a.456.456,0,0,0,.414-.01Zm-4.642,2.452a.456.456,0,0,0,.419,0l2.887-1.666c.126-.068.136-.178,0-.241l-2.761-1.572a.471.471,0,0,0-.419,0l-2.887,1.671c-.126.068-.136.178-.026.241Zm-8.163-12.4-2.892,1.666c-.121.073-.131.183,0,.246l2.761,1.572a.456.456,0,0,0,.419,0l2.887-1.666c.126-.068.136-.178.026-.241l-2.761-1.6A.472.472,0,0,0,178.285,300.728Zm21.1-12.181-2.887,1.666c-.126.073-.136.178-.026.241l2.761,1.572a.456.456,0,0,0,.419,0l2.892-1.666c.121-.073.131-.178,0-.241l-2.761-1.6a.456.456,0,0,0-.377.026ZM182.5,298.292l-2.887,1.666c-.121.073-.136.183-.026.246l2.761,1.572a.466.466,0,0,0,.424,0l2.887-1.666c.121-.073.131-.178,0-.241L182.9,298.3a.471.471,0,0,0-.377-.005Zm21.1-12.182-2.887,1.666c-.12.073-.131.178,0,.241l2.761,1.6a.456.456,0,0,0,.419,0l2.887-1.666c.12-.073.131-.178.026-.241l-2.766-1.572a.456.456,0,0,0-.419-.026Zm-8.42,4.878-2.887,1.666c-.12.073-.131.178,0,.241l2.761,1.6a.456.456,0,0,0,.419,0l2.887-1.666c.12-.073.136-.178.026-.241l-2.782-1.6A.466.466,0,0,0,195.182,290.988Zm-4.218,2.436-2.887,1.666c-.126.073-.136.178-.026.241l2.761,1.6a.456.456,0,0,0,.419,0l2.892-1.666c.12-.073.131-.178,0-.241l-2.74-1.619a.472.472,0,0,0-.419.016Zm-4.191,2.436-2.892,1.666c-.121.073-.131.183,0,.246l2.761,1.572a.456.456,0,0,0,.419,0l2.887-1.666c.126-.073.136-.178.026-.241l-2.782-1.6a.472.472,0,0,0-.445.016Zm19.265,1.635,2.887-1.666c.126-.073.136-.178,0-.241l-2.761-1.572a.472.472,0,0,0-.419,0l-2.892,1.666c-.121.073-.131.178,0,.241l2.761,1.6a.456.456,0,0,0,.4-.031Zm39.369-35.486-2.887,1.666c-.121.068-.131.178-.026.241l2.766,1.572a.471.471,0,0,0,.419,0l2.887-1.671c.121-.068.131-.178.026-.241L245.825,262a.456.456,0,0,0-.445,0Zm-5.108,2.944-2.887,1.671c-.12.068-.131.178-.026.241l2.766,1.572a.472.472,0,0,0,.419,0l2.887-1.671c.121-.068.131-.178.026-.241l-2.766-1.572a.472.472,0,0,0-.445-.005Zm9.305-5.4-2.887,1.666c-.126.068-.136.178-.026.241l2.761,1.572a.471.471,0,0,0,.419,0l2.887-1.671c.126-.068.136-.178.026-.241l-2.761-1.572A.456.456,0,0,0,249.6,259.552Zm-23.326,21.68,2.887-1.666c.121-.068.131-.178.026-.241l-2.766-1.572a.472.472,0,0,0-.419,0l-2.887,1.671c-.121.068-.131.178-.026.241l2.766,1.572a.456.456,0,0,0,.419-.005Zm27.962-24.1a.472.472,0,0,0-.419,0l-2.887,1.671c-.121.068-.131.178-.026.241l2.766,1.572a.472.472,0,0,0,.419,0l2.887-1.671c.121-.068.131-.178.026-.241ZM210.229,295.07l2.887-1.666c.121-.073.131-.178,0-.241l-2.761-1.6a.456.456,0,0,0-.419,0l-2.835,1.666c-.121.073-.136.178,0,.241l2.761,1.6a.466.466,0,0,0,.382-.016Zm51.749-29.864,2.887-1.666c.126-.068.136-.178.026-.241l-2.777-1.65a.472.472,0,0,0-.419,0l-2.887,1.666c-.126.073-.136.183-.026.246l2.761,1.572a.456.456,0,0,0,.44.042Zm-8.168.157L256.7,263.7c.121-.068.131-.178,0-.241l-2.761-1.572a.472.472,0,0,0-.419,0l-2.887,1.671c-.126.068-.136.178-.026.241l2.761,1.572a.456.456,0,0,0,.445-.052Zm4.37-5.936a.472.472,0,0,0-.419,0l-2.887,1.671c-.121.068-.131.178,0,.241l2.761,1.572a.456.456,0,0,0,.419,0l2.887-1.666c.121-.068.136-.178,0-.241Zm.891-.524,6.706,3.872a.466.466,0,0,0,.424,0l2.887-1.666c.121-.068.131-.178,0-.241L262.382,257a.472.472,0,0,0-.419,0l-2.887,1.666c-.1.047-.1.157,0,.22Zm-9.745,5.365-2.887,1.671c-.121.068-.131.178,0,.241l2.761,1.572a.456.456,0,0,0,.419,0l2.887-1.666c.121-.068.136-.178.026-.241l-2.761-1.572a.482.482,0,0,0-.445-.005ZM217.58,282.605l-2.887,1.671c-.121.068-.131.178,0,.241l2.766,1.572a.456.456,0,0,0,.419,0l2.845-1.65c.121-.068.131-.178.026-.241l-2.766-1.572A.471.471,0,0,0,217.58,282.605Zm39.782-14.99a.456.456,0,0,0,.419,0l2.887-1.666c.121-.068.131-.178,0-.241l-2.745-1.6a.472.472,0,0,0-.419,0l-2.887,1.666c-.121.073-.131.183-.026.246ZM221.8,280.19l-2.887,1.671c-.126.068-.136.178,0,.241l2.761,1.572a.456.456,0,0,0,.419,0l2.887-1.666c.126-.068.136-.178.026-.241l-2.761-1.572a.472.472,0,0,0-.477-.016Zm-33.092,27.04a.456.456,0,0,0,.419,0l2.887-1.666c.126-.068.136-.178,0-.241l-2.73-1.593a.472.472,0,0,0-.419,0l-2.887,1.666c-.126.073-.136.183-.026.246Zm-4.9-5.14-2.9,1.687c-.121.068-.131.178,0,.241l2.761,1.572a.456.456,0,0,0,.419,0l2.887-1.666c.126-.073.136-.183.026-.246l-2.761-1.572a.456.456,0,0,0-.43.005Zm9.546,2.688,2.887-1.666c.12-.068.131-.178,0-.241l-2.761-1.577a.472.472,0,0,0-.419,0l-2.887,1.666c-.12.073-.131.183,0,.246l2.766,1.572a.456.456,0,0,0,.414.021Zm4.218-2.436,2.887-1.666c.126-.073.136-.178.026-.241l-2.761-1.588a.472.472,0,0,0-.419,0l-2.887,1.666c-.126.073-.136.183,0,.246l2.761,1.572a.456.456,0,0,0,.393.031Zm4.223-2.436,2.887-1.666c.121-.073.131-.178,0-.241l-2.761-1.6a.472.472,0,0,0-.419,0l-2.887,1.666c-.121.073-.136.183-.026.241l2.766,1.572a.456.456,0,0,0,.44.047Zm-13.769-.251-2.887,1.666c-.121.068-.136.178-.026.241l2.761,1.572a.482.482,0,0,0,.424,0l2.887-1.666c.121-.073.131-.183,0-.246l-2.761-1.572a.456.456,0,0,0-.4.026Zm4.223-2.436-2.892,1.666c-.121.068-.131.178,0,.241l2.761,1.572a.471.471,0,0,0,.419,0l2.887-1.671c.12-.068.136-.178.026-.241l-2.761-1.572a.456.456,0,0,0-.44.026Zm16.876-9.745-2.887,1.666c-.12.068-.131.178,0,.241L209,290.952a.472.472,0,0,0,.419,0l2.887-1.671c.121-.068.131-.178.026-.241l-2.766-1.572a.456.456,0,0,0-.44.026Zm-4.218,2.468-2.887,1.666c-.126.068-.136.178-.026.241l2.761,1.572a.471.471,0,0,0,.419,0l2.887-1.671c.126-.068.136-.178,0-.241l-2.761-1.572a.456.456,0,0,0-.393.005Zm8.441-4.878-2.887,1.671c-.126.068-.136.178,0,.241l2.761,1.572a.472.472,0,0,0,.419,0l2.887-1.671c.126-.068.136-.178.026-.241l-2.761-1.572a.472.472,0,0,0-.445-.01Zm-16.881,9.74-2.887,1.666c-.126.068-.136.178-.026.241l2.761,1.572a.472.472,0,0,0,.419,0l2.892-1.671c.121-.068.131-.178,0-.241l-2.761-1.572A.456.456,0,0,0,196.465,294.8Zm4.218-2.436-2.887,1.666c-.121.068-.131.178,0,.241l2.761,1.572a.472.472,0,0,0,.419,0l2.887-1.671c.121-.068.136-.178.026-.241l-2.766-1.572A.456.456,0,0,0,200.683,292.366ZM195.3,308.231l2.887-1.666c.126-.068.136-.178.026-.241l-2.761-1.572a.472.472,0,0,0-.419,0l-2.887,1.666c-.126.073-.136.183,0,.246l2.761,1.572a.456.456,0,0,0,.393-.005Zm-22.252-1.048-2.761-1.572a.456.456,0,0,0-.419,0l-2.887,1.666c-.126.073-.136.183,0,.246l2.761,1.572a.456.456,0,0,0,.419,0l2.887-1.666C173.145,307.356,173.155,307.23,173.045,307.183Zm5.5,1.378-2.761-1.572a.456.456,0,0,0-.419,0l-4.417,2.557c-.126.073-.136.183,0,.246l2.761,1.572a.456.456,0,0,0,.419,0l4.443-2.562A.141.141,0,0,0,178.547,308.561Zm-9.625-4.527-2.761-1.572a.456.456,0,0,0-.419,0l-3.558,2.054c-.12.068-.131.178,0,.241l2.761,1.572a.472.472,0,0,0,.419,0l3.552-2.054C169.022,304.2,169.032,304.087,168.922,304.034Zm2.724-1.572a.456.456,0,0,0,.419,0l2.887-1.666c.126-.073.136-.183.026-.246l-2.761-1.572a.456.456,0,0,0-.419,0l-2.887,1.666c-.126.068-.136.178-.026.241Zm11.956,7.744-2.761-1.572a.472.472,0,0,0-.419,0l-5.554,3.206c-.12.073-.136.178,0,.241l2.761,1.572a.466.466,0,0,0,.424,0l5.548-3.206c.1-.073.11-.183,0-.246Zm1.949,3.432-2.766-1.572a.472.472,0,0,0-.419,0l-3.558,2.038c-.12.073-.131.178,0,.241l2.766,1.6a.477.477,0,0,0,.419,0l3.552-2.054c.1-.084.115-.194.005-.257Zm17.473-29.288a.456.456,0,0,0,.419,0l2.887-1.666c.12-.073.131-.178.026-.241l-2.766-1.572a.477.477,0,0,0-.419,0l-2.882,1.635c-.121.073-.131.178-.026.241Zm-8.441,4.873a.456.456,0,0,0,.419,0l2.887-1.666c.12-.068.136-.178.026-.241l-2.766-1.6a.477.477,0,0,0-.419,0l-2.887,1.666c-.12.073-.131.183,0,.246Zm-18.72,10.8a.482.482,0,0,0,.424,0l2.887-1.7c.121-.073.131-.183,0-.246l-2.761-1.572a.456.456,0,0,0-.419,0l-2.887,1.666c-.121.068-.136.178,0,.241ZM198.8,286.8a.456.456,0,0,0,.419,0l2.887-1.666c.126-.068.136-.178.026-.241l-2.761-1.6a.472.472,0,0,0-.419,0l-2.887,1.666c-.126.073-.136.183-.026.246Zm-8.441,4.873a.456.456,0,0,0,.419,0L193.668,290c.126-.068.136-.178,0-.241l-2.761-1.6a.472.472,0,0,0-.419,0l-2.887,1.666c-.126.073-.136.183-.026.246Zm-2.74,22.152a.472.472,0,0,0-.419,0l-4.443,2.567c-.121.068-.131.178,0,.241l2.761,1.572a.456.456,0,0,0,.419,0l4.443-2.567c.12-.068.131-.178,0-.241ZM184.3,295.164a.471.471,0,0,0,.419,0l2.892-1.671c.121-.068.131-.178,0-.241l-2.761-1.572a.456.456,0,0,0-.419,0l-2.887,1.666c-.126.068-.136.178-.026.241Zm-4.218,2.436a.471.471,0,0,0,.419,0l2.887-1.671c.126-.068.136-.178.026-.241l-2.761-1.572a.456.456,0,0,0-.419,0l-2.892,1.666c-.12.068-.131.178,0,.241Zm85.721-28.921a.456.456,0,0,0-.419,0l-7.11,4.1c-.121.073-.136.178-.026.241l2.766,1.6a.456.456,0,0,0,.419,0l7.1-4.1c.126-.073.136-.178.026-.241Zm-9.331,5.386a.456.456,0,0,0-.419,0l-2.887,1.666c-.121.073-.136.178-.026.241l2.761,1.6a.466.466,0,0,0,.424,0l2.887-1.666c.121-.073.131-.178,0-.241Zm-56.957,31.73,2.887-1.666c.12-.068.131-.178.026-.241l-2.766-1.572a.471.471,0,0,0-.419,0l-2.887,1.666c-.12.073-.131.183,0,.246l2.761,1.572A.456.456,0,0,0,199.52,305.795Zm48.516-26.857a.472.472,0,0,0-.419,0L244.73,280.6c-.121.073-.136.178-.026.241l2.766,1.6a.456.456,0,0,0,.419,0l2.887-1.666c.121-.073.131-.178,0-.241Zm22.005-12.695a.456.456,0,0,0-.419,0l-2.9,1.692c-.121.073-.136.178-.026.241l2.761,1.572a.472.472,0,0,0,.419,0l2.892-1.666c.121-.073.131-.178,0-.241Zm6.984-.838-6.712-3.877a.456.456,0,0,0-.419,0l-2.9,1.692c-.121.073-.131.178-.026.241l6.712,3.877a.471.471,0,0,0,.419,0l2.887-1.666c.12-.115.136-.22.026-.283ZM232.25,288.028a.456.456,0,0,0-.419,0l-3.552,2.049c-.121.073-.136.183-.026.246l2.761,1.572a.466.466,0,0,0,.424,0l3.552-2.049c.121-.073.131-.183.026-.246Zm10.662-6.156a.456.456,0,0,0-.419,0l-4.443,2.562c-.121.073-.131.183-.026.246l2.766,1.572a.456.456,0,0,0,.419,0l4.443-2.562c.121-.073.131-.178,0-.241Zm-20.433,11.8a.456.456,0,0,0-.419,0l-23.766,13.722c-.121.068-.136.178-.026.241l2.761,1.572a.456.456,0,0,0,.419,0l23.771-13.717c.121-.073.131-.183,0-.246Zm-25.1,14.492a.471.471,0,0,0-.419,0l-3.558,2.054c-.12.073-.131.178,0,.241l2.761,1.6a.472.472,0,0,0,.419,0L200.138,310c.12-.068.136-.178.026-.241Zm29.985-17.29a.456.456,0,0,0-.419,0l-3.558,2.054c-.121.068-.131.178,0,.241l2.761,1.572a.456.456,0,0,0,.419,0l3.552-2.054c.126-.068.136-.178.026-.241ZM192.494,311a.456.456,0,0,0-.419,0l-3.552,2.049c-.126.073-.136.183,0,.246l2.761,1.572a.456.456,0,0,0,.419,0l3.552-2.049c.126-.073.136-.178,0-.241Zm44.66-25.778a.472.472,0,0,0-.419,0l-3.552,2.054c-.126.068-.136.178,0,.241l2.761,1.6a.472.472,0,0,0,.419,0l3.552-2.054c.126-.068.136-.178.026-.241Zm15.105-8.724a.456.456,0,0,0-.419,0l-2.892,1.666c-.12.073-.131.178,0,.241l2.74,1.577a.456.456,0,0,0,.419,0l2.887-1.666c.126-.073.136-.178,0-.241Zm9.431-6.6,2.887-1.666c.121-.073.136-.178.026-.241l-2.766-1.572a.477.477,0,0,0-.419,0l-2.887,1.666c-.121.073-.131.178,0,.246l2.761,1.572a.456.456,0,0,0,.419-.021Zm-17.222.828,2.887-1.666c.12-.068.136-.178.026-.241l-2.761-1.572a.482.482,0,0,0-.424,0l-2.887,1.671c-.121.068-.131.178,0,.241l2.761,1.572a.456.456,0,0,0,.419-.021ZM233.3,286.3l8.435-4.873c.126-.073.136-.178.026-.241l-2.761-1.6a.472.472,0,0,0-.419,0l-8.441,4.873c-.121.073-.136.178-.026.241l2.761,1.572A.466.466,0,0,0,233.3,286.3Zm23.787-13.963a.456.456,0,0,0,.419,0l2.887-1.666c.126-.073.136-.178.026-.241l-2.761-1.6a.472.472,0,0,0-.419,0L254.35,270.5c-.126.073-.136.183,0,.246Zm-3.542-2.311,2.887-1.666c.126-.068.136-.178.026-.241l-2.761-1.572a.472.472,0,0,0-.419,0l-2.887,1.666c-.126.073-.136.183-.026.246l2.761,1.572a.456.456,0,0,0,.419-.005Zm-24.484,18.694,2.887-1.666c.126-.073.136-.178.026-.241l-2.761-1.593a.456.456,0,0,0-.419,0l-2.892,1.666c-.121.073-.131.178,0,.241l2.761,1.6a.456.456,0,0,0,.4.01Zm18.684-11a.456.456,0,0,0,.419,0l2.887-1.666c.12-.073.131-.178.026-.241l-2.766-1.572a.477.477,0,0,0-.419,0L245,275.91c-.121.073-.131.178,0,.246Zm-39.782,23.221,2.887-1.666c.12-.068.131-.178,0-.241l-2.766-1.6a.477.477,0,0,0-.419,0l-2.887,1.666c-.121.073-.131.183-.026.246l2.766,1.572A.456.456,0,0,0,207.961,300.943Zm4.218-2.436,2.887-1.666c.126-.068.136-.178.026-.241l-2.751-1.619a.472.472,0,0,0-.419,0l-2.887,1.666c-.126.073-.136.183,0,.246l2.761,1.572a.456.456,0,0,0,.382.021Zm-8.441,4.873,2.887-1.666c.126-.068.136-.178,0-.241l-2.761-1.572a.471.471,0,0,0-.419,0l-2.887,1.666c-.126.073-.136.183-.026.246l2.761,1.572a.456.456,0,0,0,.445-.026Zm16.881-9.771,2.887-1.666c.126-.073.136-.178.026-.241l-2.761-1.6a.472.472,0,0,0-.419,0l-2.887,1.666c-.126.073-.136.178,0,.241l2.735,1.6a.456.456,0,0,0,.419,0Zm-4.218,2.436,2.887-1.666c.121-.068.131-.178.026-.241l-2.782-1.577a.472.472,0,0,0-.419,0l-2.887,1.666c-.121.073-.131.183-.026.246l2.766,1.572a.456.456,0,0,0,.435.005Zm8.441-4.873,2.887-1.666c.121-.073.131-.178,0-.241l-2.761-1.6a.456.456,0,0,0-.419,0l-2.887,1.666c-.121.073-.136.178-.026.241l2.766,1.6a.456.456,0,0,0,.44.005Zm23.027-33.893a.456.456,0,0,0,.419,0l2.887-1.666c.126-.073.136-.178.026-.241l-.734-.424a.472.472,0,0,0-.419,0l-2.892,1.671c-.121.068-.131.178,0,.241ZM226.911,270.56a.477.477,0,0,0,.419,0l2.887-1.666c.121-.073.131-.183,0-.246l-2.761-1.572a.456.456,0,0,0-.419,0l-2.887,1.666c-.121.068-.131.178-.026.241Zm8.441-4.873a.477.477,0,0,0,.419,0l2.887-1.666c.121-.073.131-.183,0-.246l-2.74-1.6a.456.456,0,0,0-.419,0l-2.887,1.666c-.121.068-.136.178-.026.241Zm-13.6,7.859a.472.472,0,0,0,.419,0l2.887-1.671c.126-.068.136-.178.026-.241l-2.793-1.6a.456.456,0,0,0-.419,0l-2.887,1.666c-.126.068-.136.178-.026.241Zm9.373-5.407a.472.472,0,0,0,.419,0l2.887-1.666c.126-.073.136-.183.026-.246l-2.761-1.572a.456.456,0,0,0-.419,0l-2.887,1.666c-.126.068-.136.178-.026.241Zm-17.814,10.285a.493.493,0,0,0,.419,0l2.887-1.666c.126-.073.136-.183.026-.246l-2.761-1.572a.456.456,0,0,0-.419,0l-2.887,1.666c-.126.068-.136.178-.026.241Zm4.223-2.442a.471.471,0,0,0,.419,0l2.887-1.666c.121-.073.131-.183,0-.246l-2.761-1.572a.456.456,0,0,0-.419,0l-2.887,1.666c-.121.068-.131.178-.026.241Zm21.89-13.811a.456.456,0,0,0,.419,0l2.887-1.666c.126-.073.136-.178.026-.241l-.733-.424a.472.472,0,0,0-.419,0l-2.887,1.671c-.126.068-.136.178-.026.241Zm12.664-7.335a.456.456,0,0,0,.419,0l2.887-1.666c.121-.073.131-.178,0-.241l-.734-.424a.471.471,0,0,0-.419,0l-2.887,1.671c-.126.068-.136.178-.026.241Zm5.8,3.348a.471.471,0,0,0,.419,0l2.887-1.671c.126-.068.136-.178.026-.241l-2.761-1.572a.472.472,0,0,0-.419,0l-2.887,1.671c-.126.068-.136.178-.026.241Zm8.037,9.258,2.887-1.666c.126-.073.136-.178,0-.241l-2.761-1.6a.471.471,0,0,0-.419,0l-2.887,1.666c-.126.073-.136.178-.026.241l2.761,1.6a.456.456,0,0,0,.445.01Zm-22.278-7.733a.456.456,0,0,0,.419,0l2.887-1.666c.121-.073.131-.178,0-.241l-.733-.424a.472.472,0,0,0-.419,0l-2.887,1.671c-.121.068-.136.178,0,.241Zm-34.58,21.13a.477.477,0,0,0,.419,0l2.887-1.666c.121-.073.131-.183.026-.246l-2.766-1.572a.456.456,0,0,0-.419,0l-2.887,1.666c-.12.068-.131.178-.026.241Z" transform="translate(-139.66 -155.505)" fill="#455a64"/><path d="M275.61,333.218l.592.341,15.729,9.075,27.962-16.142.582-.335-16.315-9.415Z" transform="translate(-193.702 -186.108)" fill="#37474f"/><path d="M276.74,334.168l15.729,9.075L320.431,327.1,304.7,318.02Z" transform="translate(-194.24 -186.717)" fill="#263238"/></g><g transform="translate(33.898 139.955)"><g transform="translate(0)"><path d="M99.894,209.711l-6.408-3.668c-.283-.168-.493-.21-.6-.141l-.781.451c-.136.079-.131.309.037.665l1.572,3.227-1.163,1.048a.906.906,0,0,0,.168,1.54l6.408,3.7.781-.456Z" transform="translate(-65.036 -205.87)" fill="#ec1313"/><path d="M99.894,209.711l-6.408-3.668c-.283-.168-.493-.21-.6-.141l-.781.451c-.136.079-.131.309.037.665l1.572,3.227-1.163,1.048a.906.906,0,0,0,.168,1.54l6.408,3.7.781-.456Z" transform="translate(-65.036 -205.87)" fill="#fff" opacity="0.5"/><path d="M92.7,206.846c-.623-.362-.88-.126-.566.524L93.71,210.6l-1.163,1.048a.906.906,0,0,0,.168,1.54l6.408,3.7V210.55Z" transform="translate(-65.035 -206.254)" fill="#ec1313"/><path d="M106.314,231.458a.749.749,0,0,1-.754-.754V209.422a.754.754,0,0,1,1.5,0V230.7a.749.749,0,0,1-.749.754Z" transform="translate(-71.488 -207.232)" fill="#455a64"/><path d="M54.39,355.858v-1.326h.32a5.239,5.239,0,0,1,2.153-2.1,13.241,13.241,0,0,1,11.988,0,5.192,5.192,0,0,1,2.153,2.1h.325v1.284c0,1.273-.8,2.552-2.478,3.521a13.241,13.241,0,0,1-11.988,0C55.233,358.378,54.379,357.116,54.39,355.858Z" transform="translate(-47.128 -274.963)" fill="#263238"/><ellipse cx="8.477" cy="4.894" rx="8.477" ry="4.894" transform="translate(7.257 74.676)" fill="#455a64"/><path d="M70.764,269.77v45.509a1.09,1.09,0,0,1-.639.891,3.406,3.406,0,0,1-3.086,0,1.079,1.079,0,0,1-.639-.891V269.77Z" transform="translate(-52.846 -236.291)" fill="#37474f"/><path d="M66.4,280.28v4.281l4.364,2.515v-4.27Z" transform="translate(-52.846 -241.294)" fill="#263238"/><path d="M90.768,259.253l8.069,4.663a.6.6,0,0,1-.157.168l-14.115,8.147c-.121.068-.215,0-.215-.131V261.93a15.9,15.9,0,0,1,1.179-5.7Z" transform="translate(-61.391 -229.845)" fill="#ec1313"/><path d="M90.768,259.253l8.069,4.663a.6.6,0,0,1-.157.168l-14.115,8.147c-.121.068-.215,0-.215-.131V261.93a15.9,15.9,0,0,1,1.179-5.7Z" transform="translate(-61.391 -229.845)" opacity="0.4"/><path d="M99.971,244.242v11.4L86.6,247.9l.047-.11a16.5,16.5,0,0,1,6.45-8.126,6.119,6.119,0,0,1,3.023-.938C98.5,238.73,99.971,240.841,99.971,244.242Z" transform="translate(-62.462 -221.514)" fill="#ec1313"/><path d="M99.971,244.242v11.4L86.6,247.9l.047-.11a16.5,16.5,0,0,1,6.45-8.126,6.119,6.119,0,0,1,3.023-.938C98.5,238.73,99.971,240.841,99.971,244.242Z" transform="translate(-62.462 -221.514)" opacity="0.3"/><path d="M112.756,285.4v-1.016h-.1v.147a4.406,4.406,0,0,0-.262-.823,7.629,7.629,0,0,0-3.374-3.432l-9.551-5.517a1.619,1.619,0,0,0-1.441,0l-14.607,8.43a2.243,2.243,0,0,1-.461-.524v1.048h0a.524.524,0,0,0,.293.419l9.557,5.512a18.2,18.2,0,0,0,9.132,2.159,15.828,15.828,0,0,0,7.6-1.85c2.148-1.231,3.206-2.871,3.206-4.543Z" transform="translate(-60.729 -238.584)" fill="#ec1313"/><path d="M112.756,285.4v-1.016h-.1v.147a4.406,4.406,0,0,0-.262-.823,7.629,7.629,0,0,0-3.374-3.432l-9.551-5.517a1.619,1.619,0,0,0-1.441,0l-14.607,8.43a2.243,2.243,0,0,1-.461-.524v1.048h0a.524.524,0,0,0,.293.419l9.557,5.512a18.2,18.2,0,0,0,9.132,2.159,15.828,15.828,0,0,0,7.6-1.85c2.148-1.231,3.206-2.871,3.206-4.543Z" transform="translate(-60.729 -238.584)" opacity="0.4"/><path d="M112.814,283.715a7.629,7.629,0,0,0-3.374-3.432l-9.551-5.517a1.619,1.619,0,0,0-1.441,0L83.84,283.191l9.389,5.417a18.259,18.259,0,0,0,9.132,2.159,15.886,15.886,0,0,0,7.6-1.849,5.731,5.731,0,0,0,3.175-4.034,4.26,4.26,0,0,0-.325-1.168Z" transform="translate(-61.148 -238.589)" fill="#ec1313"/><path d="M112.814,283.715a7.629,7.629,0,0,0-3.374-3.432l-9.551-5.517a1.619,1.619,0,0,0-1.441,0L83.84,283.191l9.389,5.417a18.259,18.259,0,0,0,9.132,2.159,15.886,15.886,0,0,0,7.6-1.849,5.731,5.731,0,0,0,3.175-4.034,4.26,4.26,0,0,0-.325-1.168Z" transform="translate(-61.148 -238.589)" opacity="0.2"/><path d="M112.715,283.97a4.259,4.259,0,0,0-.325-1.179,7.629,7.629,0,0,0-3.374-3.432l-9.551-5.517a1.619,1.619,0,0,0-1.441,0l-14.607,8.43-.168-.094a.44.44,0,0,1,0-.833l14.775-8.5a1.572,1.572,0,0,1,1.441,0l9.551,5.517a7.684,7.684,0,0,1,3.374,3.432,4.239,4.239,0,0,1,.335,1.252,3.825,3.825,0,0,1-.01.927Z" transform="translate(-60.725 -237.67)" fill="#ec1313"/><path d="M112.715,283.97a4.259,4.259,0,0,0-.325-1.179,7.629,7.629,0,0,0-3.374-3.432l-9.551-5.517a1.619,1.619,0,0,0-1.441,0l-14.607,8.43-.168-.094a.44.44,0,0,1,0-.833l14.775-8.5a1.572,1.572,0,0,1,1.441,0l9.551,5.517a7.684,7.684,0,0,1,3.374,3.432,4.239,4.239,0,0,1,.335,1.252,3.825,3.825,0,0,1-.01.927Z" transform="translate(-60.725 -237.67)" opacity="0.3"/><path d="M84.14,280.51l14.77-8.53-.33-.77-14.115,8.152Z" transform="translate(-61.291 -236.976)" fill="#ec1313"/><path d="M84.14,280.51l14.77-8.53-.33-.77-14.115,8.152Z" transform="translate(-61.291 -236.976)" opacity="0.1"/><g transform="translate(16.42 10.973)"><path d="M91.654,237.924a.77.77,0,0,0-.351-.608L73.321,226.921a.754.754,0,0,0-.7,0l-.4.231a.77.77,0,0,0-.351.608v13.785a.781.781,0,0,0,.351.608L90.2,252.537a.8.8,0,0,0,.707,0l.393-.231a.781.781,0,0,0,.351-.608Z" transform="translate(-71.87 -226.824)" fill="#f5f5f5"/><path d="M91.649,237.548l-1,.576L72.07,227.394a.718.718,0,0,1,.246-.267l.4-.225a.755.755,0,0,1,.7,0l18,10.384a.676.676,0,0,1,.231.262Z" transform="translate(-71.965 -226.815)" fill="#e0e0e0"/><path d="M107.38,276Z" transform="translate(-88.775 -250.23)" fill="#ec1313"/><path d="M90.559,238.64l-.183.11a.3.3,0,0,1,.183.3v13.785a.241.241,0,0,1-.11.231.231.231,0,0,1-.168,0l-.073-.031L72.221,242.654a.786.786,0,0,1-.351-.608V228.261a.734.734,0,0,1,.1-.351Z" transform="translate(-71.87 -227.336)" fill="#ebebeb"/><path d="M90.554,238.612l-8.325,3.107a1.347,1.347,0,0,1-1.608-.524l-1.347-2.054-7.367-11.3,7.11,11.38-7.146,2.8a.692.692,0,0,0,.11.351l7.057-3.117,1.572,2.489a1.357,1.357,0,0,0,1.7.524l1.105-.487,7.057,11.259a.251.251,0,0,0,.1-.231v-.257l-7.146-10.793Z" transform="translate(-71.87 -227.303)" opacity="0.2"/></g><g transform="translate(12.161 13.415)"><path d="M83.529,242.548a.786.786,0,0,0-.351-.608L65.191,231.561a.754.754,0,0,0-.7,0l-.4.225a.786.786,0,0,0-.351.608v13.785a.8.8,0,0,0,.351.613l17.987,10.379a.755.755,0,0,0,.7,0l.4-.225a.786.786,0,0,0,.351-.608Z" transform="translate(-63.74 -231.475)" fill="#f5f5f5"/><path d="M83.519,242.229l-1,.576L63.94,232.049a.744.744,0,0,1,.246-.262l.4-.225a.755.755,0,0,1,.7,0L83.273,241.94a.744.744,0,0,1,.246.288Z" transform="translate(-63.835 -231.475)" fill="#e0e0e0"/><path d="M99.25,280.67Z" transform="translate(-80.645 -254.895)" fill="#ec1313"/><path d="M82.429,243.3l-.183.11a.3.3,0,0,1,.183.3v13.785a.241.241,0,0,1-.11.231.23.23,0,0,1-.168,0l-.073-.031L64.091,247.314a.786.786,0,0,1-.351-.608V232.921a.733.733,0,0,1,.1-.351Z" transform="translate(-63.74 -231.996)" fill="#ebebeb"/><path d="M82.429,243.267,74.1,246.384a1.352,1.352,0,0,1-1.6-.524l-1.341-2.049L63.777,232.5l7.11,11.38-7.146,2.8a.854.854,0,0,0,.11.351l7.057-3.144,1.572,2.489a1.357,1.357,0,0,0,1.692.524l1.111-.487,7.036,11.28a.241.241,0,0,0,.11-.231v-.231L75.3,246.416Z" transform="translate(-63.74 -231.963)" opacity="0.2"/></g><g transform="translate(7.906 15.855)"><path d="M75.4,247.207a.77.77,0,0,0-.351-.608L57.071,236.215a.786.786,0,0,0-.7,0l-.4.231a.77.77,0,0,0-.351.608v13.785a.77.77,0,0,0,.351.608L73.953,261.83a.8.8,0,0,0,.707,0l.393-.231a.77.77,0,0,0,.351-.608Z" transform="translate(-55.62 -236.132)" fill="#f5f5f5"/><path d="M75.4,246.861l-1,.576L55.82,236.707a.7.7,0,0,1,.246-.262l.4-.231a.786.786,0,0,1,.7,0L75.148,246.6a.713.713,0,0,1,.251.262Z" transform="translate(-55.715 -236.132)" fill="#e0e0e0"/><path d="M91.13,285.32a.141.141,0,0,0,.068,0h0A.068.068,0,0,1,91.13,285.32Z" transform="translate(-72.525 -259.549)" fill="#ec1313"/><path d="M74.309,247.955l-.183.11a.3.3,0,0,1,.183.3v13.79a.236.236,0,0,1-.11.225.23.23,0,0,1-.168,0l-.073-.026L55.971,251.968a.77.77,0,0,1-.351-.608v-13.78a.734.734,0,0,1,.1-.351Z" transform="translate(-55.62 -236.655)" fill="#ebebeb"/><path d="M74.3,247.927l-8.325,3.112a1.357,1.357,0,0,1-1.608-.524l-1.336-2.049L55.657,237.16l7.11,11.375-7.146,2.8a.692.692,0,0,0,.11.351l7.057-3.117,1.572,2.489a1.357,1.357,0,0,0,1.7.524l1.106-.492,7.057,11.259a.241.241,0,0,0,.1-.231v-.231L67.2,251.07Z" transform="translate(-55.62 -236.621)" opacity="0.2"/></g><path d="M76.168,225.967c-1.43-.749-3.327-.618-5.4.587a16.408,16.408,0,0,0-5.9,6.549,20.617,20.617,0,0,0-.922,1.986,16.708,16.708,0,0,0-1.284,6.114v11.642a1.514,1.514,0,0,1-.718-.173l-20.69-11.956a1.608,1.608,0,0,1-.718-1.247V228.435c0-5.512,3.631-12.051,8.105-14.67,2.1-1.226,4.05-1.326,5.5-.524h0Z" transform="translate(-40.53 -209.133)" fill="#ec1313"/><path d="M76.168,225.967c-1.43-.749-3.327-.618-5.4.587a16.408,16.408,0,0,0-5.9,6.549,20.617,20.617,0,0,0-.922,1.986,16.708,16.708,0,0,0-1.284,6.114v11.642a1.514,1.514,0,0,1-.718-.173l-20.69-11.956a1.608,1.608,0,0,1-.718-1.247V228.435c0-5.512,3.631-12.051,8.105-14.67,2.1-1.226,4.05-1.326,5.5-.524h0Z" transform="translate(-40.53 -209.133)" opacity="0.2"/><path d="M41.248,252.039l20.69,11.972a1.514,1.514,0,0,0,.718.173V252.542a14.7,14.7,0,0,1,.388-3.254L40.912,236.51a14.959,14.959,0,0,0-.382,3.248v11.034A1.608,1.608,0,0,0,41.248,252.039Z" transform="translate(-40.53 -220.457)" opacity="0.1"/><path d="M83.806,247.666a16.708,16.708,0,0,0-1.284,6.114v11.626a1.427,1.427,0,0,1-.262-.031c0-.665,0-4.4,0-11.595,0-8.545,6.575-13.979,8.383-14.67a16.407,16.407,0,0,0-5.9,6.549,20.615,20.615,0,0,0-.933,2.007Z" transform="translate(-60.396 -221.695)" fill="#ec1313"/><path d="M83.806,247.666a16.708,16.708,0,0,0-1.284,6.114v11.626a1.427,1.427,0,0,1-.262-.031c0-.665,0-4.4,0-11.595,0-8.545,6.575-13.979,8.383-14.67a16.407,16.407,0,0,0-5.9,6.549,20.615,20.615,0,0,0-.933,2.007Z" transform="translate(-60.396 -221.695)" opacity="0.4"/><path d="M83.775,263.146a.134.134,0,0,1-.215-.126V252.85a15.855,15.855,0,0,1,1.179-5.7l.047-.11a19.147,19.147,0,0,1,.985-2.1,15.414,15.414,0,0,1,5.465-6.031,6.119,6.119,0,0,1,3.023-.938,3.316,3.316,0,0,1,1.572.382c1.415.754,2.242,2.578,2.242,5.129v11.134a.482.482,0,0,1-.215.372l.325.77.073-.042a1.572,1.572,0,0,0,.3-.288h0a1.572,1.572,0,0,0,.346-.912V243.488c0-2.95-1.048-5-2.7-5.873-1.43-.754-3.327-.623-5.4.582a16.354,16.354,0,0,0-5.9,6.554,20.616,20.616,0,0,0-.922,1.98,16.692,16.692,0,0,0-1.284,6.12v11.616h.162a1.441,1.441,0,0,0,.6-.168Z" transform="translate(-60.601 -220.76)" fill="#ec1313"/><path d="M83.775,263.146a.134.134,0,0,1-.215-.126V252.85a15.855,15.855,0,0,1,1.179-5.7l.047-.11a19.147,19.147,0,0,1,.985-2.1,15.414,15.414,0,0,1,5.465-6.031,6.119,6.119,0,0,1,3.023-.938,3.316,3.316,0,0,1,1.572.382c1.415.754,2.242,2.578,2.242,5.129v11.134a.482.482,0,0,1-.215.372l.325.77.073-.042a1.572,1.572,0,0,0,.3-.288h0a1.572,1.572,0,0,0,.346-.912V243.488c0-2.95-1.048-5-2.7-5.873-1.43-.754-3.327-.623-5.4.582a16.354,16.354,0,0,0-5.9,6.554,20.616,20.616,0,0,0-.922,1.98,16.692,16.692,0,0,0-1.284,6.12v11.616h.162a1.441,1.441,0,0,0,.6-.168Z" transform="translate(-60.601 -220.76)" opacity="0.1"/></g></g><g transform="translate(106.416 111.076)"><path d="M178.94,192.213a2.992,2.992,0,0,1,1.362-2.358l67.153-38.771a3.007,3.007,0,0,1,2.724,0l1.535.885a3.007,3.007,0,0,1,1.357,2.358v53.379a3.023,3.023,0,0,1-1.357,2.358l-67.158,38.8a3.028,3.028,0,0,1-2.719,0l-1.535-.885a3.023,3.023,0,0,1-1.362-2.358Z" transform="translate(-178.94 -150.754)" fill="#ec1313"/><g transform="translate(0 0.004)" opacity="0.7"><path d="M178.94,192.213a2.992,2.992,0,0,1,1.362-2.358l67.153-38.771a3.007,3.007,0,0,1,2.724,0l1.535.885a3.007,3.007,0,0,1,1.357,2.358v53.379a3.023,3.023,0,0,1-1.357,2.358l-67.158,38.8a3.028,3.028,0,0,1-2.719,0l-1.535-.885a3.023,3.023,0,0,1-1.362-2.358Z" transform="translate(-178.94 -150.757)" fill="#fff"/></g><path d="M179.7,190.868l3.861,2.227,69.474-40.118a2.85,2.85,0,0,0-.959-1.016l-1.54-.88a2.955,2.955,0,0,0-2.714,0l-67.158,38.771a2.735,2.735,0,0,0-.964,1.016Z" transform="translate(-179.302 -150.75)" fill="#ec1313"/><path d="M179.7,190.868l3.861,2.227,69.474-40.118a2.85,2.85,0,0,0-.959-1.016l-1.54-.88a2.955,2.955,0,0,0-2.714,0l-67.158,38.771a2.735,2.735,0,0,0-.964,1.016Z" transform="translate(-179.302 -150.75)" fill="#fff" opacity="0.8"/><path d="M178.94,228.656v53.379a2.992,2.992,0,0,0,1.362,2.358l1.535.891a2.415,2.415,0,0,0,.372.168,3.024,3.024,0,0,0,.561.126,3.357,3.357,0,0,0,1.074-.037l.267-.068.168-.058a.812.812,0,0,1-.66-.026.933.933,0,0,1-.419-.891V231.119a1.189,1.189,0,0,1,.707-1.158l-.707-.414-3.861-2.227A2.772,2.772,0,0,0,178.94,228.656Z" transform="translate(-178.94 -187.202)" fill="#ec1313" opacity="0.1"/><path d="M178.94,228.656v53.379a2.992,2.992,0,0,0,1.362,2.358l1.535.891a2.415,2.415,0,0,0,.372.168,3.024,3.024,0,0,0,.561.126,3.357,3.357,0,0,0,1.074-.037l.267-.068.168-.058a.812.812,0,0,1-.66-.026.933.933,0,0,1-.419-.891V231.119a1.189,1.189,0,0,1,.707-1.158l-.707-.414-3.861-2.227A2.772,2.772,0,0,0,178.94,228.656Z" transform="translate(-178.94 -187.202)" opacity="0.05"/><path d="M187.055,195.118,219.3,207.168a5.239,5.239,0,0,0,6.224-2.049l5.176-7.938L256.529,155l-24.793,42.475,25.191,12.265a2.85,2.85,0,0,1-.424,1.362l-24.845-13.5-6.015,9.63a5.239,5.239,0,0,1-6.565,2.017l-4.291-1.891-27.323,43.6a.933.933,0,0,1-.419-.891v-.891L214.65,207.3Z" transform="translate(-182.795 -152.773)" fill="#ec1313" opacity="0.2"/><path d="M187.055,195.118,219.3,207.168a5.239,5.239,0,0,0,6.224-2.049l5.176-7.938L256.529,155l-24.793,42.475,25.191,12.265a2.85,2.85,0,0,1-.424,1.362l-24.845-13.5-6.015,9.63a5.239,5.239,0,0,1-6.565,2.017l-4.291-1.891-27.323,43.6a.933.933,0,0,1-.419-.891v-.891L214.65,207.3Z" transform="translate(-182.795 -152.773)" opacity="0.05"/><g transform="translate(17.012 9.843)"><path d="M211.426,210.993a3.007,3.007,0,0,1,1.357-2.358l67.158-38.771a3,3,0,0,1,2.719,0l1.535.885a3.007,3.007,0,0,1,1.362,2.358v53.379a3.018,3.018,0,0,1-1.362,2.358l-67.153,38.771a3.039,3.039,0,0,1-2.724,0l-1.551-.906a3.034,3.034,0,0,1-1.357-2.358Z" transform="translate(-211.41 -169.537)" fill="#ec1313"/><g opacity="0.5"><path d="M211.426,210.993a3.007,3.007,0,0,1,1.357-2.358l67.158-38.771a3,3,0,0,1,2.719,0l1.535.885a3.007,3.007,0,0,1,1.362,2.358v53.379a3.018,3.018,0,0,1-1.362,2.358l-67.153,38.771a3.039,3.039,0,0,1-2.724,0l-1.551-.906a3.034,3.034,0,0,1-1.357-2.358Z" transform="translate(-211.41 -169.537)" fill="#fff"/></g><path d="M212.19,209.653l3.867,2.227,69.474-40.113a2.85,2.85,0,0,0-.959-1.016l-1.54-.88a2.965,2.965,0,0,0-2.719,0l-67.174,38.766a2.746,2.746,0,0,0-.948,1.016Z" transform="translate(-211.781 -169.539)" fill="#ec1313"/><path d="M212.19,209.653l3.867,2.227,69.474-40.113a2.85,2.85,0,0,0-.959-1.016l-1.54-.88a2.965,2.965,0,0,0-2.719,0l-67.174,38.766a2.746,2.746,0,0,0-.948,1.016Z" transform="translate(-211.781 -169.539)" fill="#fff" opacity="0.6"/><path d="M211.43,247.436v53.379a3,3,0,0,0,1.347,2.342l1.53.891a2.485,2.485,0,0,0,.377.168,2.934,2.934,0,0,0,.561.126,3.362,3.362,0,0,0,1.074-.037l.262-.073a.867.867,0,0,0,.162-.063.812.812,0,0,1-.65,0,.948.948,0,0,1-.419-.9V249.9a1.189,1.189,0,0,1,.707-1.158l-.707-.414-3.867-2.227A2.829,2.829,0,0,0,211.43,247.436Z" transform="translate(-211.42 -205.986)" opacity="0.1"/><path d="M219.565,213.9l32.248,12.051a5.239,5.239,0,0,0,6.224-2.049l5.182-7.932,25.825-42.182-24.793,42.475,25.191,12.265a2.85,2.85,0,0,1-.424,1.362l-24.85-13.5-6.02,9.63a5.239,5.239,0,0,1-6.56,2.017l-4.286-1.891-27.318,43.6a.948.948,0,0,1-.419-.9v-.891l27.606-41.873Z" transform="translate(-215.289 -171.562)" fill="#ec1313" opacity="0.4"/><path d="M219.565,213.9l32.248,12.051a5.239,5.239,0,0,0,6.224-2.049l5.182-7.932,25.825-42.182-24.793,42.475,25.191,12.265a2.85,2.85,0,0,1-.424,1.362l-24.85-13.5-6.02,9.63a5.239,5.239,0,0,1-6.56,2.017l-4.286-1.891-27.318,43.6a.948.948,0,0,1-.419-.9v-.891l27.606-41.873Z" transform="translate(-215.289 -171.562)" opacity="0.05"/></g></g><g transform="translate(140.608 113.363)"><path d="M244.2,231.6l69.883-40.343,2.8,1.614a2.918,2.918,0,0,1,1.315,2.274V246.7a2.908,2.908,0,0,1-1.315,2.274L249.628,287.8a2.908,2.908,0,0,1-2.62,0l-1.483-.854a2.918,2.918,0,0,1-1.315-2.274Z" transform="translate(-244.2 -172.323)" fill="#ec1313"/><path d="M244.2,231.6l69.883-40.343,2.8,1.614a2.918,2.918,0,0,1,1.315,2.274V246.7a2.908,2.908,0,0,1-1.315,2.274L249.628,287.8a2.908,2.908,0,0,1-2.62,0l-1.483-.854a2.918,2.918,0,0,1-1.315-2.274Z" transform="translate(-244.2 -172.323)" opacity="0.2"/><path d="M313.7,171.308l.283-.157-1.085-.629h0a1.6,1.6,0,0,0-.288-.136l-30.755-11.4a2.122,2.122,0,0,0-2.363.754l-34.4,50.24a5.941,5.941,0,0,0-.891,2.871v3.332l1.048.623,68.814-40.967V172.5A2.253,2.253,0,0,0,313.7,171.308Z" transform="translate(-244.2 -156.908)" fill="#ec1313"/><path d="M281.16,160.457a1.739,1.739,0,0,0-.356.377L246.4,211.075a5.345,5.345,0,0,0-.639,1.436l-1.048-.618a6.869,6.869,0,0,1,.278-.76h0c.047-.1.094-.2.147-.3l.026-.047a2.741,2.741,0,0,1,.183-.3l34.4-50.24a1.671,1.671,0,0,1,.173-.21l.183-.168Z" transform="translate(-244.443 -157.374)" opacity="0.1"/><path d="M346.383,171.146a1.678,1.678,0,0,0-.293-.141l-30.76-11.4a2.1,2.1,0,0,0-2,.377l-1.048-.618a2.132,2.132,0,0,1,2.007-.377l30.755,11.4a1.63,1.63,0,0,1,.288.141Z" transform="translate(-276.61 -156.908)" fill="#fff" opacity="0.35"/><path d="M245.55,256.724a3.336,3.336,0,0,1,.183-.3A3.336,3.336,0,0,0,245.55,256.724Z" transform="translate(-244.843 -203.343)" fill="#ec1313"/><path d="M311.89,159.968l.183-.168Z" transform="translate(-276.425 -157.346)" fill="#ec1313"/><path d="M244.67,258.46a6.861,6.861,0,0,1,.278-.76A6.867,6.867,0,0,0,244.67,258.46Z" transform="translate(-244.424 -203.952)" fill="#ec1313"/><path d="M245.22,257.384c.047-.1.094-.2.147-.3C245.314,257.18,245.267,257.279,245.22,257.384Z" transform="translate(-244.686 -203.657)" fill="#ec1313"/><path d="M245.2,257.7Z" transform="translate(-244.676 -203.952)" opacity="0.2"/><path d="M244.67,259.15Z" transform="translate(-244.424 -204.643)" opacity="0.2"/><path d="M312.24,159.8Z" transform="translate(-276.591 -157.346)" opacity="0.2"/><path d="M245.5,257.037a.215.215,0,0,1,.026-.047.215.215,0,0,0-.026.047Z" transform="translate(-244.819 -203.614)" opacity="0.2"/><path d="M311.56,160.33a2.166,2.166,0,0,1,.173-.21A1.364,1.364,0,0,0,311.56,160.33Z" transform="translate(-276.268 -157.498)" opacity="0.2"/><path d="M281.532,160.92l-34.407,50.24a5.994,5.994,0,0,0-.885,2.871v3.337l69.883-40.343v-3.332a2.421,2.421,0,0,0-1.472-2.1l-30.76-11.427A2.1,2.1,0,0,0,281.532,160.92Z" transform="translate(-245.171 -157.47)" fill="#ec1313"/><path d="M316.127,184.994a2.279,2.279,0,0,0-.372-1.174l-69.264,40.086h0a5.134,5.134,0,0,0-.241,1.425v3.337l69.883-40.343Z" transform="translate(-245.176 -168.781)" opacity="0.05"/><path d="M317.835,157.151a.812.812,0,0,0-.325-.733l-2.138-1.231a.8.8,0,0,0-.8.084l-57.319,33.108a2.5,2.5,0,0,0-1.137,1.965v68.636a.791.791,0,0,0,.33.734l2.127,1.231a.812.812,0,0,0,.8-.079L316.7,227.777a2.515,2.515,0,0,0,1.132-1.965Z" transform="translate(-249.87 -155.115)" fill="#f0f0f0"/><path d="M261.322,262l57.324-33.113a2.515,2.515,0,0,0,1.132-1.965V158.264c0-.723-.524-1.016-1.132-.655l-57.324,33.107a2.515,2.515,0,0,0-1.132,1.965v68.636C260.19,262.056,260.7,262.349,261.322,262Z" transform="translate(-251.812 -156.229)" fill="#fafafa"/><path d="M317.631,223.181a10.092,10.092,0,0,1-.43,2.284,9.739,9.739,0,0,1-.828,1.918,7.334,7.334,0,0,1-1.079,1.467,4.606,4.606,0,0,1-1.2.917,2.515,2.515,0,0,1-1.65.4,1.472,1.472,0,0,1-.854-.524q-.189.409-.393.817a4.871,4.871,0,0,1-.524.823,4.934,4.934,0,0,1-.77.791,5.82,5.82,0,0,1-1.126.734,2.19,2.19,0,0,1-1.425.283,1.677,1.677,0,0,1-1.048-.739,4.313,4.313,0,0,1-.634-1.666,11.463,11.463,0,0,1-.142-2.5,16.182,16.182,0,0,1,.341-2.745,13.143,13.143,0,0,1,.749-2.373,7.86,7.86,0,0,1,1.121-1.865,4.585,4.585,0,0,1,1.451-1.205,1.692,1.692,0,0,1,1.3-.278,1.42,1.42,0,0,1,.671.623v-.283a1.572,1.572,0,0,1,.194-.681,1.09,1.09,0,0,1,.419-.466l1.121-.571a.314.314,0,0,1,.4.042.681.681,0,0,1,.152.524l-.252,6.659q-.031.754.283.99a.66.66,0,0,0,.749,0,1.87,1.87,0,0,0,.76-.807,3.909,3.909,0,0,0,.414-1.614c.052-.582.089-1.179.115-1.8s.026-1.189,0-1.713a10.381,10.381,0,0,0-.419-2.777,3.013,3.013,0,0,0-1.048-1.608,2.447,2.447,0,0,0-1.755-.382,7.775,7.775,0,0,0-2.557.875,8.959,8.959,0,0,0-2.263,1.666,11.889,11.889,0,0,0-1.76,2.316,14.226,14.226,0,0,0-1.226,2.8,16.862,16.862,0,0,0-.676,3.091c-.037.288-.068.655-.094,1.111s-.047.927-.068,1.42-.037.969-.047,1.43,0,.823,0,1.1a8.341,8.341,0,0,0,.451,2.483,3.609,3.609,0,0,0,1.048,1.6,2.5,2.5,0,0,0,1.645.576,4.83,4.83,0,0,0,2.216-.623,13.213,13.213,0,0,0,1.535-.912,10.358,10.358,0,0,0,1.147-.922,11,11,0,0,0,.849-.912c.236-.3.451-.587.644-.87s.293-.435.393-.555a1.048,1.048,0,0,1,.383-.3l1.572-.817a.341.341,0,0,1,.409,0c.115.094.162.278.136.561a1.289,1.289,0,0,1-.168.524c-.32.592-.681,1.221-1.079,1.876a14.265,14.265,0,0,1-1.415,1.928,16.006,16.006,0,0,1-1.933,1.849,14.732,14.732,0,0,1-2.62,1.677,6.623,6.623,0,0,1-3.264.885,3.573,3.573,0,0,1-2.316-.943,5.454,5.454,0,0,1-1.409-2.389,12.1,12.1,0,0,1-.524-3.442q0-.424,0-1.163c0-.487.026-1,.047-1.535s.047-1.048.073-1.53.052-.87.079-1.147a20.958,20.958,0,0,1,.807-4.1,19.866,19.866,0,0,1,1.666-3.982,17.08,17.08,0,0,1,2.515-3.458,12,12,0,0,1,3.337-2.525,8.53,8.53,0,0,1,3.694-1.121,3.479,3.479,0,0,1,2.426.854,4.873,4.873,0,0,1,1.336,2.431,15.545,15.545,0,0,1,.461,3.589c0,.524,0,1.158-.037,1.881S317.678,222.578,317.631,223.181Zm-9.84,3.835a4.191,4.191,0,0,0,.314,2.18.741.741,0,0,0,1.126.257,2.693,2.693,0,0,0,1.231-1.446,7.639,7.639,0,0,0,.493-2.62,4.422,4.422,0,0,0-.3-2.2c-.241-.44-.629-.524-1.158-.251a2.7,2.7,0,0,0-1.2,1.457,7.76,7.76,0,0,0-.5,2.6Z" transform="translate(-271.383 -182.374)" fill="#ec1313"/><path d="M258.243,291.228a.854.854,0,0,0,.267.692l-2.059-1.184a.791.791,0,0,1-.335-.733V221.366a2.274,2.274,0,0,1,.335-1.116l2.127,1.226a2.29,2.29,0,0,0-.335,1.121Z" transform="translate(-249.871 -186.124)" fill="#e0e0e0"/><path d="M319.657,289.128a.636.636,0,0,1-.073.1l-29.126-9.211a5.019,5.019,0,0,0-6.287,1.939l-31.138,46.264-1.153.665h0a.938.938,0,0,1-.891.1l32.018-47.678a5.04,5.04,0,0,1,6.287-1.944Z" transform="translate(-247.432 -214.067)" fill="#ec1313"/><path d="M281.3,292.692l.073-.063-28.34,41.81-1.153.665h0a.954.954,0,0,1-.891.1L280.178,292Z" transform="translate(-247.432 -220.281)" fill="#fff" opacity="0.4"/><path d="M348.759,289.118a.635.635,0,0,1-.073.1l-29.126-9.211a5.014,5.014,0,0,0-6.287,1.939l-1.153-.671a5.03,5.03,0,0,1,6.287-1.928Z" transform="translate(-276.534 -214.056)" fill="#fff" opacity="0.4"/><path d="M322.516,195.413h0c-.063-.377-.262-.482-.524-.3a1.515,1.515,0,0,0-.335.346l-.147.2-28.738,43.686-4.291,5.978a2.447,2.447,0,0,1-2.363.885l-3.7-.88-28.293-10.405a1.441,1.441,0,0,0-.576,0,1.046,1.046,0,0,0-.215.068l1.048-.618,27.108,9.955,3.568,1.273a2.436,2.436,0,0,0,2.363-.885l4.291-5.973,28.879-43.89a1.152,1.152,0,0,1,.325-.3l-2.5-1.441,1.048-.6,1.729,1A3,3,0,0,1,322.516,195.413Z" transform="translate(-248.546 -172.918)" fill="#ec1313"/><path d="M319.2,281.372l-4.291,5.978a2.447,2.447,0,0,1-2.363.885l-3.7-.88.073-.063.178-.283,2.426.576a2.436,2.436,0,0,0,2.363-.885l4.249-5.91Z" transform="translate(-274.973 -214.945)" fill="#fff" opacity="0.4"/><path d="M356.094,193.415l-1.729-1-1.048.6,2.5,1.441h0a1.1,1.1,0,0,0-.325.3l-28.879,43.89-.042.058h0l1.048.582L356.356,195.6l.147-.2a1.514,1.514,0,0,1,.335-.346c.257-.178.456-.073.524.3h0A3,3,0,0,0,356.094,193.415Z" transform="translate(-283.413 -172.875)" opacity="0.1"/><path d="M250.4,271.818l-6.167-3.558v53.069a2.918,2.918,0,0,0,1.315,2.274l1.483.854a2.908,2.908,0,0,0,2.62,0l.739-.424Z" transform="translate(-244.214 -208.98)" fill="#ec1313"/><path d="M250.4,271.818l-6.167-3.558v53.069a2.918,2.918,0,0,0,1.315,2.274l1.483.854a2.908,2.908,0,0,0,2.62,0l.739-.424Z" transform="translate(-244.214 -208.98)" opacity="0.15"/><path d="M321.953,198.023v51.55a2.677,2.677,0,0,1-.409,1.331,2.871,2.871,0,0,1-.77.864l-.052.026a.8.8,0,0,1-.084.058l-67.252,38.824h0a.938.938,0,0,1-.9.1.8.8,0,0,1-.393-.629,1.674,1.674,0,0,1,0-.236V238.36a1.142,1.142,0,0,1,1.478-1.163L281.866,247.6l3.7.88a2.447,2.447,0,0,0,2.363-.885l4.291-5.978,28.738-43.686.147-.2C321.554,197.059,321.953,197.184,321.953,198.023Z" transform="translate(-247.957 -175.198)" fill="#ec1313"/><path d="M357.07,292.132l.089-.058.047-.031a2.787,2.787,0,0,0,.77-.859,2.677,2.677,0,0,0,.409-1.31L328.62,281.91l19.91,15.137Z" transform="translate(-284.389 -215.478)" fill="#ec1313"/><path d="M357.07,292.132l.089-.058.047-.031a2.787,2.787,0,0,0,.77-.859,2.677,2.677,0,0,0,.409-1.31L328.62,281.91l19.91,15.137Z" transform="translate(-284.389 -215.478)" opacity="0.2"/><path d="M252.045,335.623a.906.906,0,0,0,.409.865.933.933,0,0,0,.9-.1h0l23.163-13.376,5.292-29.7-29.76,41.454Z" transform="translate(-247.932 -220.905)" fill="#ec1313"/><path d="M284.654,284.069l-32.2,47.72a.906.906,0,0,1-.409-.865v-.854l31.436-46.63h0Z" transform="translate(-247.932 -216.206)" opacity="0.15"/><path d="M321.9,290.315a2.787,2.787,0,0,1-.77.859l-.047.031-67.341,38.881h0a.933.933,0,0,1-.9.1l32.206-47.725a5.056,5.056,0,0,1,6.329-1.944Z" transform="translate(-248.318 -214.61)" fill="#ec1313"/><path d="M244.446,259.15l1.048.618a5.24,5.24,0,0,0-.246,1.436v3.332l-1.048-.618V260.58A5.238,5.238,0,0,1,244.446,259.15Z" transform="translate(-244.2 -204.643)" opacity="0.15"/><path d="M251.034,270.418l-1.069.618-1.079-.624-2.656-1.53,1.032-.613Z" transform="translate(-245.166 -208.984)" fill="#ec1313"/><path d="M251.067,270.439l-3.819-2.169-1.048.613,2.656,1.53,1.079.623h0l.2-.063a1.441,1.441,0,0,1,.576,0l2.19.823,24.683,9.09.388-.571Z" transform="translate(-245.152 -208.984)" opacity="0.1"/></g><g transform="translate(40.51 69.729)"><g transform="translate(24.704 13.668)"><path d="M123.72,100.095l-3.992,2.305a4.55,4.55,0,0,0,.031-.524v-1.153c0-2.059-1.446-2.892-3.227-1.865a6.366,6.366,0,0,0-1.923,1.849c-.288-2.588-2.321-3.552-4.789-2.127a10.685,10.685,0,0,0-4.825,8.383v1.729a4.574,4.574,0,0,0,.409,2.007l-3.317,1.912a3.966,3.966,0,0,0-1.787,3.1c0,1.142.8,1.6,1.787,1.048L123.72,104.25a3.956,3.956,0,0,0,1.787-3.1C125.522,99.99,124.721,99.534,123.72,100.095Z" transform="translate(-100.3 -97.921)" fill="#f0f0f0"/></g><path d="M81.961,74.541l-4.915,2.835a5.48,5.48,0,0,0,.042-.65V75.28c0-2.531-1.776-3.558-3.971-2.29a7.728,7.728,0,0,0-2.368,2.274c-.356-3.186-2.855-4.37-5.894-2.62a13.145,13.145,0,0,0-5.941,10.28v2.127a5.617,5.617,0,0,0,.524,2.468l-4.081,2.358a4.873,4.873,0,0,0-2.206,3.814c0,1.409.99,1.975,2.206,1.273L81.982,79.592a4.857,4.857,0,0,0,2.206-3.814C84.167,74.384,83.182,73.818,81.961,74.541Z" transform="translate(-53.15 -71.835)" fill="#f0f0f0"/></g><g transform="translate(198.636 73.09)"><g transform="translate(0 0)"><path d="M404.96,153.937l18.532-11.867,8.168,2.62Z" transform="translate(-378.76 -108.632)" fill="#ec1313"/><path d="M404.96,148.848l16.017-13.36-3.558-4.108Z" transform="translate(-378.76 -103.543)" fill="#ec1313"/><path d="M420.977,139.22v3.1L404.96,152.58Z" transform="translate(-378.76 -107.276)" fill="#ec1313"/><path d="M420.977,139.22v3.1L404.96,152.58Z" transform="translate(-378.76 -107.276)" opacity="0.25"/><path d="M399.843,109.938a.393.393,0,0,1-.267-.681,13.659,13.659,0,0,0,1.514-1.65.393.393,0,1,1,.624.477,14.469,14.469,0,0,1-1.6,1.75A.409.409,0,0,1,399.843,109.938Zm2.95-3.914a.372.372,0,0,1-.178-.042.388.388,0,0,1-.173-.524,13.371,13.371,0,0,0,1.048-2.866.393.393,0,0,1,.765.183,13.821,13.821,0,0,1-1.1,3.034A.393.393,0,0,1,402.793,106.024Zm1.436-5.538h0a.393.393,0,0,1-.377-.409c0-.215,0-.424,0-.634a14.454,14.454,0,0,0-.2-2.415.393.393,0,0,1,.32-.456.4.4,0,0,1,.456.325,15.47,15.47,0,0,1,.215,2.546v.665a.393.393,0,0,1-.409.377Zm-.844-5.664a.393.393,0,0,1-.372-.267,16.834,16.834,0,0,0-1.273-2.787.4.4,0,0,1,.147-.524.4.4,0,0,1,.524.147,17.368,17.368,0,0,1,1.326,2.924.393.393,0,0,1-.241.524.524.524,0,0,1-.115-.016Zm-2.756-5.035a.393.393,0,0,1-.309-.152,20.076,20.076,0,0,0-2.064-2.284.393.393,0,1,1,.524-.571,21.178,21.178,0,0,1,2.148,2.373.393.393,0,0,1-.073.524.388.388,0,0,1-.231.11Zm-4.1-4.024a.388.388,0,0,1-.236-.079,25.312,25.312,0,0,0-2.583-1.7.4.4,0,0,1-.142-.524.388.388,0,0,1,.524-.141,25.982,25.982,0,0,1,2.662,1.755.393.393,0,0,1-.236.707ZM355.35,84.244a.393.393,0,0,1-.2-.734c.912-.524,1.855-1.016,2.814-1.472a.393.393,0,0,1,.524.189.388.388,0,0,1-.189.524c-.938.445-1.865.927-2.756,1.441a.388.388,0,0,1-.2.052Zm36.235-1.409a.372.372,0,0,1-.168-.037c-.933-.451-1.891-.864-2.855-1.236a.4.4,0,1,1,.3-.749c.98.377,1.96.8,2.913,1.263a.393.393,0,0,1-.173.744Zm-31.054-1.048a.4.4,0,0,1-.367-.251.393.393,0,0,1,.225-.524c.98-.382,1.991-.734,3-1.048a.394.394,0,0,1,.225.754c-.99.293-1.98.639-2.939,1.011a.372.372,0,0,1-.147.026ZM386.2,80.739a.3.3,0,0,1-.115,0c-.985-.3-2-.561-3.007-.781a.407.407,0,1,1,.189-.791c1.048.225,2.064.493,3.07.8a.393.393,0,0,1,.262.493.4.4,0,0,1-.377.278Zm-20.172-.686a.393.393,0,0,1-.382-.3.4.4,0,0,1,.3-.472c1.022-.236,2.07-.435,3.117-.587a.393.393,0,1,1,.115.775c-1.048.152-2.054.346-3.06.582Zm14.576-.6h-.058c-1.022-.152-2.064-.262-3.1-.33a.393.393,0,1,1,.052-.781q1.572.1,3.144.33a.393.393,0,0,1-.058.781Zm-8.865-.283a.393.393,0,1,1-.031-.786c1.048-.084,2.122-.131,3.175-.131h0a.393.393,0,0,1,0,.786c-1.048,0-2.1.047-3.112.131Z" transform="translate(-354.954 -78.25)" fill="#e0e0e0"/></g></g></g></svg>