<svg xmlns="http://www.w3.org/2000/svg" width="36" height="36" viewBox="0 0 36 36"><path d="M36,32.625A3.375,3.375,0,0,1,32.625,36H3.375A3.375,3.375,0,0,1,0,32.625V14.113a3.375,3.375,0,0,1,1.293-2.656c1.752-1.373,3.2-2.487,11.545-8.544C14.021,2.051,16.369-.024,18,0c1.631-.025,3.979,2.051,5.162,2.913,8.345,6.057,9.795,7.172,11.545,8.544A3.375,3.375,0,0,1,36,14.113ZM31.383,18.8a.562.562,0,0,0-.8-.134c-1.606,1.186-3.9,2.862-7.424,5.42C21.979,24.949,19.631,27.024,18,27c-1.632.024-3.977-2.049-5.162-2.913-3.524-2.557-5.817-4.233-7.424-5.42a.562.562,0,0,0-.8.134l-.638.928a.562.562,0,0,0,.129.771c1.609,1.188,3.9,2.861,7.4,5.4,1.426,1.039,3.974,3.362,6.487,3.345,2.512.017,5.06-2.3,6.487-3.345,3.505-2.544,5.8-4.217,7.4-5.4a.562.562,0,0,0,.129-.771l-.638-.928Z"/></svg>