<svg xmlns="http://www.w3.org/2000/svg" width="181.25" height="21.875" viewBox="0 0 181.25 21.875"><path d="M18.75-6.25H6.25V-9.375h12.5q4.688,0,4.688-4.687T18.75-18.75H7.813q-4.687,0-4.687,4.688V0H0V-14.062q0-7.813,7.813-7.812H18.75q7.813,0,7.813,7.813T18.75-6.25ZM29.688-21.875h3.125V0H29.688Zm25,0q7.812,0,7.813,7.813H59.375q0-4.687-4.687-4.687H43.75q-4.687,0-4.687,4.688v6.25q0,4.688,4.688,4.688H54.688q4.688,0,4.688-4.687H62.5Q62.5,0,54.688,0H43.75q-7.812,0-7.812-7.812v-6.25q0-7.813,7.813-7.812Zm10.938,0H68.75V0H65.625ZM84.375-6.25h-12.5V-9.375h12.5q4.688,0,4.688-4.687v-7.812h3.125v7.813q0,4.313-2.391,6.25,2.391,1.938,2.391,6.25V0H89.063V-1.562Q89.063-6.25,84.375-6.25Zm29.688-15.625q7.813,0,7.813,7.813H118.75q0-4.687-4.687-4.687H103.125q-4.687,0-4.687,4.688v6.25q0,4.688,4.688,4.688h10.938q4.688,0,4.688-4.687h3.125Q121.875,0,114.063,0H103.125q-7.813,0-7.812-7.812v-6.25q0-7.813,7.813-7.812Zm37.5,9.375v3.125H131.25V-12.5Zm-18.75-9.375h18.75v3.125h-18.75q-4.687,0-4.687,4.688v6.25q0,4.688,4.688,4.688h18.75V0h-18.75Q125,0,125-7.812v-6.25Q125-21.875,132.813-21.875ZM162.5-3.125h18.75V0H162.5q-7.812,0-7.812-7.812V-21.875h3.125V-7.812Q157.813-3.125,162.5-3.125Z" transform="translate(0 21.875)" fill="#ec1313"/></svg>