<svg xmlns="http://www.w3.org/2000/svg" width="95" height="95" viewBox="0 0 95 95"><g transform="translate(-414 -1819)"><g transform="translate(414 1819)" fill="#fff" stroke="#e8e0b6" stroke-width="3"><circle cx="47.5" cy="47.5" r="47.5" stroke="none"/><circle cx="47.5" cy="47.5" r="46" fill="none"/></g><g transform="translate(444.691 1850.099)"><path d="M18.41,2.789h-6.7c-5.508,0-8.962,3.9-8.962,9.421V27.1c0,5.521,3.438,9.421,8.962,9.421H27.519c5.526,0,8.964-3.9,8.964-9.421V19.887" transform="translate(-2.75 -2.72)" fill="none" stroke="#84762e" stroke-linecap="round" stroke-linejoin="round" stroke-width="3"/><path d="M9.4,17.386,22.791,4a4.273,4.273,0,0,1,6.039,0l2.18,2.18a4.269,4.269,0,0,1,0,6.039L17.558,25.669a3.889,3.889,0,0,1-2.75,1.139H8.1l.168-6.771A3.888,3.888,0,0,1,9.4,17.386Z" transform="translate(1.482 -2.75)" fill="none" stroke="#84762e" stroke-linecap="round" stroke-linejoin="round" stroke-width="3" fill-rule="evenodd"/><path d="M15.165,4.6l8.179,8.179" transform="translate(7.074 -1.285)" fill="none" stroke="#84762e" stroke-linecap="round" stroke-linejoin="round" stroke-width="3"/></g></g></svg>