<svg xmlns="http://www.w3.org/2000/svg" width="34" height="34" viewBox="0 0 34 34"><g transform="translate(11.653 11.239)"><path d="M13.763,6.174a3.914,3.914,0,0,0-.251-1.329,2.765,2.765,0,0,0-1.579-1.579,3.962,3.962,0,0,0-1.311-.252c-.577-.026-.76-.033-2.225-.033s-1.652,0-2.225.033a3.962,3.962,0,0,0-1.311.252A2.763,2.763,0,0,0,3.282,4.845a3.931,3.931,0,0,0-.251,1.311C3,6.733,3,6.916,3,8.381s0,1.652.034,2.225a3.956,3.956,0,0,0,.251,1.312A2.765,2.765,0,0,0,4.862,13.5a3.95,3.95,0,0,0,1.311.27c.578.026.761.034,2.225.034s1.652,0,2.225-.034a3.954,3.954,0,0,0,1.311-.251,2.768,2.768,0,0,0,1.579-1.579,3.95,3.95,0,0,0,.251-1.312c.026-.577.034-.76.034-2.225S13.8,6.748,13.763,6.174Zm-5.37,4.976a2.773,2.773,0,1,1,1.961-.812A2.772,2.772,0,0,1,8.393,11.151Zm2.883-5a.647.647,0,1,1,.646-.647A.646.646,0,0,1,11.276,6.149Z" transform="translate(-2.997 -2.981)" fill="#888"/><path d="M10.792,12.578a1.8,1.8,0,1,0-1.8-1.8A1.8,1.8,0,0,0,10.792,12.578Z" transform="translate(-5.396 -5.38)" fill="#888"/></g><circle cx="17" cy="17" r="17" fill="none"/></svg>