<svg xmlns="http://www.w3.org/2000/svg" width="34" height="34" viewBox="0 0 34 34"><g transform="translate(-0.325)"><circle cx="17" cy="17" r="17" transform="translate(0.325)" fill="none"/><path d="M11,11H9.089v-3c0-.715-.015-1.634-1-1.634-1,0-1.149.777-1.149,1.581V11H5.031V4.842H6.868v.84h.025a2.015,2.015,0,0,1,1.813-1c1.938,0,2.3,1.275,2.3,2.935V11ZM2.872,4A1.111,1.111,0,1,1,3.982,2.888,1.109,1.109,0,0,1,2.872,4Zm.959,7H1.913V4.842H3.83ZM11.958,0H.953A.941.941,0,0,0,0,.93V11.983a.941.941,0,0,0,.953.93h11a.945.945,0,0,0,.957-.93V.93A.945.945,0,0,0,11.957,0Z" transform="translate(10.179 10.178)" fill="#888"/></g></svg>