<svg xmlns="http://www.w3.org/2000/svg" width="95" height="95" viewBox="0 0 95 95"><g transform="translate(-414 -2007)"><g transform="translate(414 2007)" fill="#fff" stroke="#e8e0b6" stroke-width="3"><circle cx="47.5" cy="47.5" r="47.5" stroke="none"/><circle cx="47.5" cy="47.5" r="46" fill="none"/></g><g transform="translate(445.44 2036.587)"><path d="M3.093,9.4H35.021" transform="translate(-2.927 3.859)" fill="none" stroke="#84762e" stroke-linecap="round" stroke-linejoin="round" stroke-width="3"/><path d="M16.442,13.31h.016" transform="translate(7.637 6.95)" fill="none" stroke="#84762e" stroke-linecap="round" stroke-linejoin="round" stroke-width="3"/><path d="M12,13.31h.017" transform="translate(4.126 6.95)" fill="none" stroke="#84762e" stroke-linecap="round" stroke-linejoin="round" stroke-width="3"/><path d="M7.558,13.31h.017" transform="translate(0.607 6.95)" fill="none" stroke="#84762e" stroke-linecap="round" stroke-linejoin="round" stroke-width="3"/><path d="M16.442,17.2h.016" transform="translate(7.637 10.025)" fill="none" stroke="#84762e" stroke-linecap="round" stroke-linejoin="round" stroke-width="3"/><path d="M12,17.2h.017" transform="translate(4.126 10.025)" fill="none" stroke="#84762e" stroke-linecap="round" stroke-linejoin="round" stroke-width="3"/><path d="M7.558,17.2h.017" transform="translate(0.607 10.025)" fill="none" stroke="#84762e" stroke-linecap="round" stroke-linejoin="round" stroke-width="3"/><path d="M16.044,2V7.895" transform="translate(7.322 -2)" fill="none" stroke="#84762e" stroke-linecap="round" stroke-linejoin="round" stroke-width="3"/><path d="M7.965,2V7.895" transform="translate(0.929 -2)" fill="none" stroke="#84762e" stroke-linecap="round" stroke-linejoin="round" stroke-width="3"/><path d="M26.714,3.579H11.546C6.286,3.579,3,6.51,3,11.9V28.107c0,5.471,3.286,8.47,8.546,8.47H26.7c5.277,0,8.546-2.947,8.546-8.334V11.9C35.26,6.51,31.991,3.579,26.714,3.579Z" transform="translate(-3 -0.75)" fill="none" stroke="#84762e" stroke-linecap="round" stroke-linejoin="round" stroke-width="3" fill-rule="evenodd"/></g></g></svg>