<svg xmlns="http://www.w3.org/2000/svg" width="34" height="34" viewBox="0 0 34 34"><g transform="translate(-0.457)"><path d="M12.888,3.5a5.381,5.381,0,0,1-1.52.417,2.668,2.668,0,0,0,1.164-1.465,5.468,5.468,0,0,1-1.682.637A2.647,2.647,0,0,0,6.338,5.5,7.5,7.5,0,0,1,.882,2.739,2.594,2.594,0,0,0,.524,4.071,2.648,2.648,0,0,0,1.7,6.275,2.639,2.639,0,0,1,.5,5.943v.032a2.649,2.649,0,0,0,2.123,2.6,2.688,2.688,0,0,1-1.19.046,2.656,2.656,0,0,0,2.477,1.839A5.309,5.309,0,0,1,.63,11.589,5.619,5.619,0,0,1,0,11.553a7.53,7.53,0,0,0,4.066,1.189A7.477,7.477,0,0,0,11.6,5.217c0-.113,0-.226-.008-.339a5.346,5.346,0,0,0,1.324-1.371Z" transform="translate(9.796 9.156)" fill="#888"/><circle cx="17" cy="17" r="17" transform="translate(0.457)" fill="none"/></g></svg>