<svg xmlns="http://www.w3.org/2000/svg" width="95" height="95" viewBox="0 0 95 95"><g transform="translate(-414 -1631)"><g transform="translate(414 1631)" fill="#fff" stroke="#e8e0b6" stroke-width="3"><circle cx="47.5" cy="47.5" r="47.5" stroke="none"/><circle cx="47.5" cy="47.5" r="46" fill="none"/></g><g transform="translate(446.306 1661.831)"><path d="M36.588,26.4c0,6.409-3.778,10.187-10.187,10.187H12.461C6.035,36.588,2.25,32.81,2.25,26.4V12.428C2.25,6.028,4.6,2.25,11.015,2.25H14.6a4.084,4.084,0,0,1,3.267,1.635L19.5,6.06A4.1,4.1,0,0,0,22.771,7.7h5.069c6.425,0,8.8,3.271,8.8,9.811Z" transform="translate(-2.25 -2.25)" fill="none" stroke="#84762e" stroke-linecap="round" stroke-linejoin="round" stroke-width="3" fill-rule="evenodd"/><path d="M7.481,14.463H23.128" transform="translate(1.89 7.414)" fill="none" stroke="#84762e" stroke-linecap="round" stroke-linejoin="round" stroke-width="3"/></g></g></svg>