<svg xmlns="http://www.w3.org/2000/svg" width="34" height="34" viewBox="0 0 34 34"><g transform="translate(-0.162)"><path d="M13.318,5.042a1.709,1.709,0,0,0-1.2-1.211A40.365,40.365,0,0,0,6.8,3.545a40.377,40.377,0,0,0-5.315.286,1.71,1.71,0,0,0-1.2,1.211A17.912,17.912,0,0,0,0,8.337a17.912,17.912,0,0,0,.285,3.3,1.709,1.709,0,0,0,1.2,1.211,40.364,40.364,0,0,0,5.314.286,40.376,40.376,0,0,0,5.315-.286,1.709,1.709,0,0,0,1.2-1.211,17.947,17.947,0,0,0,.284-3.3A17.912,17.912,0,0,0,13.318,5.042ZM5.41,10.359V6.315L8.965,8.337Z" transform="translate(10.042 8.318)" fill="#888"/><circle cx="17" cy="17" r="17" transform="translate(0.162)" fill="none"/></g></svg>